<?xml version="1.0" standalone="no"?>
<!DOCTYPE svg PUBLIC "-//W3C//DTD SVG 20010904//EN"
 "http://www.w3.org/TR/2001/REC-SVG-20010904/DTD/svg10.dtd">
<svg version="1.0" xmlns="http://www.w3.org/2000/svg"
 width="1080.000000pt" height="1080.000000pt" viewBox="0 0 1080.000000 1080.000000"
 preserveAspectRatio="xMidYMid meet">

<g transform="translate(0.000000,1080.000000) scale(0.100000,-0.100000)"
fill="#000000" stroke="none">
<path d="M6020 10261 c-63 -35 -156 -132 -194 -202 -58 -105 -78 -257 -56
-414 14 -91 29 -140 81 -249 11 -22 19 -41 19 -42 0 -1 -46 -5 -102 -7 -157
-8 -212 -15 -353 -42 -208 -40 -288 -56 -325 -66 -19 -5 -78 -18 -130 -29 -81
-17 -403 -89 -465 -104 -106 -26 -199 -47 -245 -56 -30 -6 -84 -19 -120 -29
-36 -10 -87 -23 -115 -29 -79 -17 -263 -60 -345 -82 -70 -18 -108 -27 -340
-81 -47 -11 -94 -22 -105 -25 -11 -3 -60 -9 -110 -14 -49 -5 -133 -16 -185
-25 -52 -8 -126 -20 -165 -25 -156 -20 -333 -50 -385 -64 -30 -9 -69 -16 -87
-16 -17 0 -35 -4 -38 -10 -3 -5 -15 -10 -26 -10 -27 0 -76 -50 -84 -86 -4 -16
-24 -94 -45 -174 -63 -237 -85 -413 -76 -605 20 -384 109 -653 284 -853 70
-80 134 -128 267 -199 61 -32 139 -81 175 -109 290 -223 739 -353 1195 -343
122 3 130 2 133 -16 2 -11 10 -33 17 -50 51 -114 75 -175 75 -188 0 -7 -9 -22
-21 -33 -20 -18 -59 -88 -59 -107 0 -5 -6 -23 -14 -40 -28 -65 -124 -314 -141
-367 -10 -30 -23 -71 -30 -90 -45 -122 -68 -281 -68 -475 -1 -190 12 -271 64
-410 45 -122 146 -285 175 -285 9 0 14 -11 14 -31 0 -21 10 -40 30 -61 20 -20
30 -40 30 -60 0 -40 26 -93 59 -121 14 -12 36 -38 48 -57 19 -32 26 -53 38
-120 3 -14 9 -47 15 -75 6 -27 15 -68 20 -90 4 -22 15 -71 24 -110 9 -38 19
-83 22 -100 3 -16 9 -46 14 -65 5 -19 23 -98 40 -175 17 -77 35 -153 39 -170
5 -16 14 -57 21 -90 8 -33 22 -94 33 -135 10 -41 23 -91 27 -110 5 -19 13 -50
18 -67 10 -32 10 -33 -17 -33 -50 0 -65 -20 -58 -80 4 -28 10 -57 15 -64 5 -6
19 -40 30 -76 11 -36 41 -123 66 -195 25 -71 46 -140 46 -151 0 -12 7 -24 15
-28 8 -3 15 -14 15 -24 0 -38 -32 -50 -200 -73 -99 -13 -134 -25 -200 -67
-139 -88 -175 -180 -168 -433 3 -138 4 -147 35 -211 18 -38 51 -86 76 -110 24
-24 48 -53 52 -66 15 -49 59 -79 146 -101 156 -38 223 -44 459 -38 186 5 247
10 350 31 138 28 172 31 201 16 14 -8 41 -4 106 15 49 15 103 33 121 41 18 8
34 14 37 14 2 0 13 -28 24 -63 12 -34 32 -80 46 -102 14 -22 34 -59 45 -83 44
-90 172 -137 485 -177 224 -30 459 -10 621 51 67 25 114 53 114 69 0 7 34 45
75 83 56 52 84 72 108 74 31 3 33 6 48 68 13 54 22 69 50 88 69 47 99 95 115
182 8 48 9 335 1 515 -6 120 1 145 39 145 l25 0 -6 243 c-8 359 -11 372 -59
363 l-31 -6 7 78 c32 373 39 568 35 1029 -3 263 -5 486 -6 496 -1 10 14 36 34
59 96 106 199 309 229 453 9 44 21 99 27 123 12 56 12 284 -1 358 -21 118 -34
168 -77 304 -17 53 -99 242 -124 285 -10 17 -37 64 -60 105 -59 105 -191 297
-239 348 -23 23 -70 61 -106 84 l-64 41 0 68 c0 55 -4 72 -20 87 -19 18 -19
21 -4 133 14 112 27 229 39 359 3 36 10 115 15 175 15 160 41 810 35 875 -2
30 -7 136 -10 235 -4 99 -11 200 -15 225 -5 25 -11 72 -14 105 -2 33 -7 69
-10 80 -3 11 -13 52 -21 90 -35 157 -76 280 -117 355 -29 52 -92 137 -112 152
-7 5 76 189 159 351 8 16 15 33 15 38 0 5 8 28 18 52 83 190 127 367 120 488
-5 101 -30 156 -89 198 -103 75 -256 58 -388 -43 -186 -144 -291 -395 -291
-698 0 -78 -4 -128 -10 -128 -5 0 -31 6 -56 12 l-46 13 6 60 c3 33 13 107 21
165 21 146 29 360 17 456 -17 141 -75 220 -170 230 -39 4 -56 0 -102 -25z
m135 -111 c48 -18 65 -77 64 -230 0 -74 -4 -166 -9 -205 -6 -38 -15 -104 -21
-145 -6 -41 -13 -106 -16 -143 l-5 -69 -42 6 c-34 5 -48 3 -69 -14 -29 -23
-35 -54 -14 -67 6 -4 39 -8 72 -9 82 -1 174 -14 181 -25 3 -5 16 -9 29 -9 13
0 36 -5 50 -12 47 -21 53 -2 58 187 4 157 21 280 47 340 4 11 14 35 22 53 7
17 17 32 21 32 5 0 5 4 2 10 -10 17 82 146 140 196 101 87 221 116 312 75 65
-30 77 -56 71 -155 -3 -45 -10 -91 -16 -102 -6 -10 -27 -71 -47 -134 -21 -63
-48 -140 -62 -170 -14 -30 -31 -68 -38 -85 -28 -65 -79 -174 -116 -248 -21
-43 -39 -84 -39 -92 0 -9 -4 -23 -9 -33 -6 -9 -18 -43 -27 -75 -15 -50 -15
-60 -3 -68 21 -13 27 -11 41 11 19 30 34 25 69 -22 82 -111 163 -352 184 -546
1 -9 4 -24 8 -32 22 -51 29 -980 9 -1260 -7 -102 -13 -194 -13 -205 -4 -64
-28 -397 -33 -445 -16 -148 -17 -154 -49 -184 -18 -16 -51 -37 -73 -47 -23
-10 -47 -26 -54 -34 -7 -8 -17 -15 -22 -15 -10 0 -36 -11 -154 -67 -39 -18
-75 -33 -80 -33 -6 0 -48 -16 -94 -35 -47 -20 -103 -38 -125 -42 -22 -3 -44
-9 -50 -13 -14 -11 -132 -40 -160 -40 -13 0 -27 -4 -30 -10 -3 -5 -28 -10 -56
-10 -27 0 -49 -4 -49 -8 0 -5 -48 -14 -107 -21 -60 -7 -119 -14 -133 -16 -14
-2 -56 -6 -95 -10 -38 -3 -73 -9 -77 -11 -12 -8 -516 -7 -585 1 -240 26 -512
92 -615 149 -84 45 -116 104 -158 285 -12 53 -66 123 -79 103 -3 -5 -85 -9
-181 -8 -186 2 -396 33 -432 64 -9 8 -39 17 -65 19 -26 3 -55 11 -63 19 -8 7
-30 12 -48 12 -17 -1 -40 6 -50 14 -9 9 -42 18 -73 20 -39 3 -70 13 -102 34
-25 16 -46 32 -47 35 0 3 22 11 49 18 70 18 189 71 236 105 91 66 151 160 198
311 53 168 66 250 61 405 -2 82 -16 617 -18 707 -1 17 -4 35 -8 39 -5 4 -8 30
-8 57 0 48 -43 243 -60 276 -11 20 -60 162 -60 173 0 4 11 8 25 8 14 0 33 4
43 10 9 5 60 19 112 30 109 24 126 28 270 65 58 14 161 40 230 56 69 16 172
41 230 55 58 14 123 30 145 35 106 23 179 40 280 64 61 14 133 30 160 36 28 6
73 17 100 24 28 7 77 19 110 25 33 6 76 16 95 21 19 5 78 19 130 30 52 12 122
28 155 35 33 8 83 19 110 24 28 5 73 14 100 20 28 6 90 15 138 20 99 12 130
28 103 56 -9 8 -16 22 -16 31 0 8 -6 27 -14 41 -31 59 -66 144 -66 160 0 10
-4 22 -9 28 -11 12 -28 86 -36 150 -13 117 54 285 146 368 66 60 119 77 174
56z m565 -4120 c-24 -15 -37 -11 -16 5 11 8 22 12 25 9 3 -3 -1 -9 -9 -14z
m391 -21 c29 -15 60 -52 137 -163 195 -280 336 -573 389 -811 22 -101 25 -355
4 -430 -77 -280 -214 -495 -398 -624 l-63 -44 -67 17 c-144 35 -264 116 -367
250 l-61 78 1 82 c0 69 5 91 32 148 17 36 56 102 87 147 68 99 95 147 95 167
0 28 -30 74 -49 74 -26 0 -44 46 -82 210 -31 137 -37 180 -29 209 3 14 12 27
18 27 7 1 18 2 26 3 17 1 92 100 112 146 43 104 -14 130 -73 33 -17 -29 -45
-69 -62 -88 -25 -29 -32 -33 -41 -20 -5 8 -10 27 -10 42 0 56 -31 81 -44 36
-6 -25 8 -217 25 -333 15 -104 60 -287 77 -313 13 -20 11 -26 -27 -86 -23 -35
-64 -116 -92 -179 -41 -94 -50 -127 -51 -176 -1 -51 -5 -64 -27 -84 -34 -32
-53 -37 -67 -19 -9 13 -19 11 -75 -10 -35 -14 -102 -31 -149 -37 -47 -7 -112
-17 -145 -24 -77 -15 -622 -14 -755 2 -52 6 -192 18 -310 26 -118 8 -233 20
-255 26 -22 6 -71 14 -110 18 -203 23 -337 88 -400 196 -32 53 -72 170 -80
232 -4 27 -16 86 -27 133 -17 71 -20 105 -15 205 3 66 11 145 16 175 15 74 29
309 22 362 -4 29 -11 43 -21 43 -11 0 -17 -16 -22 -60 -3 -33 -14 -121 -22
-195 -9 -74 -21 -193 -27 -265 -15 -186 -11 -175 -64 -175 -42 0 -47 -3 -62
-35 -20 -43 -15 -50 60 -80 l52 -21 7 -75 c10 -105 34 -192 79 -284 l39 -80
-25 -60 c-13 -33 -25 -69 -25 -80 -1 -39 -14 -47 -42 -25 -15 11 -32 20 -40
21 -14 0 -93 154 -129 248 -11 30 -32 100 -47 155 -36 140 -38 329 -3 496 28
134 90 322 155 469 25 57 46 108 46 113 0 5 14 29 31 54 26 38 34 43 58 39 30
-5 52 19 28 29 -7 2 0 5 16 5 15 1 60 -17 100 -39 155 -86 267 -135 402 -175
268 -78 606 -109 885 -81 169 17 253 29 326 44 25 5 49 5 59 0 12 -7 23 -5 38
9 12 11 51 28 87 37 36 10 81 24 100 31 238 91 360 147 360 165 0 6 13 10 30
10 22 0 45 13 85 50 66 60 126 99 180 117 46 15 162 11 196 -8z m-475 -31 c-2
-18 -11 -24 -36 -26 -38 -4 -38 16 1 35 34 18 39 16 35 -9z m-136 -68 c0 -23
-7 -33 -30 -45 -35 -18 -40 -19 -40 -2 0 7 10 17 23 22 13 6 23 21 25 38 4 35
22 25 22 -13z m-2016 -45 c20 -8 36 -22 36 -30 0 -19 2 -19 -48 5 -24 12 -40
25 -37 30 8 13 6 13 49 -5z m1851 -5 c20 0 35 -17 35 -40 0 -14 -101 -43 -111
-33 -13 13 0 63 16 63 7 0 16 8 20 18 5 11 9 13 12 5 3 -7 15 -13 28 -13z
m-135 -39 c20 -49 11 -63 -55 -83 -33 -10 -66 -17 -74 -16 -7 2 -19 25 -26 51
-14 55 -8 62 54 66 19 1 36 3 37 4 2 1 14 3 27 5 19 1 28 -5 37 -27z m-1510
-22 c18 -31 -3 -40 -53 -23 -50 17 -62 27 -54 48 7 17 95 -3 107 -25z m1305
-31 c6 -26 8 -52 5 -59 -11 -17 -88 -29 -99 -15 -4 6 -11 25 -15 41 -4 17 -9
38 -12 47 -4 13 5 19 38 26 63 15 70 12 83 -40z m-1117 15 c39 -4 52 -10 52
-22 0 -9 3 -27 7 -40 6 -23 5 -23 -38 -16 -24 3 -68 13 -96 21 -49 14 -53 17
-53 46 0 30 1 30 38 24 20 -4 61 -9 90 -13z m948 -9 c1 -10 5 -38 9 -60 l7
-42 -68 -11 c-79 -13 -151 -17 -158 -10 -3 3 -8 30 -12 61 l-7 56 49 6 c27 4
74 10 104 15 69 10 75 9 76 -15z m-708 -13 c20 -1 22 -6 22 -52 l0 -50 -47 6
c-81 10 -90 14 -96 37 -3 13 -9 34 -13 47 -7 23 -6 23 52 18 32 -3 69 -6 82
-6z m421 -13 c5 -13 12 -42 16 -65 l7 -43 -56 0 c-53 0 -56 1 -62 28 -3 15
-10 37 -15 50 -15 37 -11 41 34 45 23 2 48 4 55 5 7 1 16 -8 21 -20z m-153
-35 c2 -24 5 -49 6 -55 2 -10 -20 -12 -91 -11 -52 2 -96 5 -98 7 -8 8 -15 76
-9 91 5 13 21 15 97 13 l91 -3 4 -42z m-1078 -1375 c-2 -6 -10 -14 -16 -16 -7
-2 -10 2 -6 12 7 18 28 22 22 4z m306 -242 c167 -81 257 -111 524 -171 12 -3
22 -10 22 -16 0 -15 -133 3 -311 42 -112 25 -136 24 -144 -1 -11 -33 19 -63
115 -116 86 -47 242 -109 379 -148 128 -38 139 -42 128 -52 -20 -20 -331 68
-409 116 -42 25 -58 25 -58 0 0 -63 187 -152 419 -201 122 -26 159 -42 165
-71 71 -345 174 -741 261 -1002 20 -59 34 -111 30 -114 -34 -34 -775 13 -895
57 -14 5 -51 17 -82 26 -31 10 -64 25 -72 34 -29 33 -79 224 -180 696 -22 101
-84 387 -103 472 -16 68 -16 74 2 106 23 44 16 72 -35 133 -71 86 -89 221 -45
331 l16 41 82 -54 c44 -30 131 -79 191 -108z m5 135 c7 -5 12 -14 9 -21 -2 -8
-11 -5 -28 9 -17 14 -20 20 -10 21 8 0 21 -4 29 -9z m133 -33 c23 -19 33 -58
14 -58 -15 0 -56 45 -56 61 0 13 24 11 42 -3z m1918 -32 c0 -6 33 -46 73 -88
40 -43 71 -78 69 -78 -11 0 -71 48 -98 78 -33 36 -74 106 -74 125 1 15 30 -23
30 -37z m-1747 -6 c17 0 54 -66 44 -77 -3 -2 -22 0 -42 6 -40 11 -64 35 -65
65 0 14 5 17 23 12 12 -3 30 -6 40 -6z m1688 -91 c16 -30 51 -79 77 -109 56
-64 151 -112 258 -130 61 -10 80 -9 130 6 33 9 65 21 71 26 7 6 20 7 29 4 16
-6 17 -25 10 -199 -22 -616 -34 -1143 -30 -1222 8 -115 -2 -141 -53 -149 -83
-12 -356 -16 -503 -7 -250 16 -530 67 -641 116 -31 14 -64 25 -72 25 -9 0 -21
8 -26 18 -5 9 -45 159 -89 332 -45 173 -95 367 -112 430 -48 177 -49 179 -43
234 l5 52 147 12 c197 16 344 55 356 94 12 37 -8 45 -82 35 -69 -10 -251 1
-396 25 l-68 11 7 46 c4 25 8 49 10 52 1 3 132 4 291 3 220 -2 312 1 388 12
55 9 104 19 108 24 5 4 -146 10 -335 13 -387 5 -548 19 -548 47 0 15 15 18
108 24 133 9 284 30 382 53 41 9 90 17 108 17 17 0 32 3 32 7 0 11 117 48 137
43 11 -3 27 3 37 15 11 12 23 21 29 21 16 0 212 94 216 104 5 12 25 -15 62
-85z m-1433 2 l26 -44 -55 7 c-55 8 -84 25 -94 57 -10 30 0 35 50 30 43 -5 49
-10 73 -50z m138 19 c13 0 26 -12 37 -35 9 -20 17 -38 17 -42 0 -8 -90 3 -100
13 -4 5 -11 24 -15 43 -7 32 -6 34 16 28 13 -4 33 -7 45 -7z m724 0 c0 -5 -15
-10 -34 -10 -19 0 -37 -6 -39 -12 -3 -8 -6 -7 -6 4 -1 15 10 20 67 27 6 0 12
-3 12 -9z m-495 -39 c16 -34 10 -51 -20 -51 -46 0 -84 14 -88 34 -2 11 -7 28
-11 36 -5 12 4 15 48 15 52 0 55 -1 71 -34z m182 2 c19 -28 19 -29 -34 -37
-40 -6 -43 -4 -58 23 -8 17 -15 32 -15 34 0 2 21 4 46 4 37 0 48 -4 61 -24z
m150 -7 c-7 -19 -38 -21 -55 -4 -18 18 -14 30 7 23 11 -3 22 -1 26 5 10 17 29
-5 22 -24z m1489 -131 c4 -18 1 -32 -11 -45 -17 -18 -17 -31 -6 -164 15 -199
14 -321 -9 -803 -21 -450 -27 -520 -42 -529 -22 -14 -27 31 -27 266 0 135 -4
442 -7 683 -6 347 -10 442 -21 452 -7 8 -13 35 -13 64 l0 50 53 25 c67 31 75
31 83 1z m-1987 -19 c69 -6 80 -11 65 -26 -6 -6 -39 -6 -93 2 -70 10 -80 14
-65 25 9 7 20 11 23 9 3 -3 35 -7 70 -10z m-333 -41 c132 -23 140 -26 166 -57
50 -60 52 -60 -144 4 -69 23 -137 50 -150 60 -12 9 -21 18 -17 18 3 0 68 -11
145 -25z m492 -115 c-3 -28 -7 -53 -10 -55 -9 -9 -108 18 -108 29 1 16 49 48
61 40 6 -3 17 3 25 15 26 36 37 25 32 -29z m-24 -282 c27 -24 51 -105 150
-503 25 -99 53 -205 61 -235 9 -30 20 -68 25 -85 4 -16 20 -66 34 -110 26 -81
34 -149 17 -159 -10 -6 -13 3 -85 234 -40 132 -74 253 -121 430 -17 65 -110
400 -121 433 -7 24 10 21 40 -5z m1712 -1084 c-3 -8 -10 -14 -16 -14 -12 0
-14 373 -3 460 6 40 10 -13 16 -189 4 -134 6 -250 3 -257z m-2543 41 c7 -17
85 -58 142 -74 223 -63 586 -87 805 -51 36 5 90 14 120 19 30 5 58 6 62 2 4
-4 128 -518 128 -534 0 -7 -158 5 -175 14 -11 5 -36 8 -55 7 -82 -5 -171 2
-174 15 -3 6 -7 24 -10 40 -7 31 -31 35 -74 13 -15 -7 -39 -16 -54 -20 -25 -6
-28 -3 -28 18 0 43 -22 50 -95 32 -91 -23 -115 -21 -141 11 -22 27 -22 27 -81
15 -89 -18 -169 -14 -261 13 -45 13 -87 27 -92 30 -6 3 -10 23 -10 43 0 54
-57 257 -100 357 -18 42 -18 45 -2 54 26 16 89 13 95 -4z m1327 -126 c173 -82
407 -129 645 -129 221 0 500 39 566 79 52 32 59 28 59 -35 0 -71 17 -138 41
-160 27 -24 23 -75 -10 -159 -33 -81 -27 -77 -231 -120 l-115 -25 -15 21 c-16
20 -16 20 -80 -10 -79 -38 -90 -38 -90 -6 0 30 -25 43 -49 27 -31 -23 -123
-62 -132 -56 -5 3 -9 18 -9 33 0 52 -15 54 -168 32 -77 -12 -163 -21 -192 -21
-44 0 -53 -3 -57 -21 -5 -19 -11 -21 -55 -15 -27 4 -66 12 -86 19 -35 11 -37
15 -40 57 -1 25 -13 95 -27 155 -39 179 -75 348 -75 357 0 17 58 7 120 -23z
m1395 -31 c7 -22 24 -380 18 -394 -5 -13 -60 -30 -70 -21 -3 3 0 21 5 39 6 18
14 58 17 88 6 51 4 59 -26 104 -25 38 -34 63 -37 107 -2 32 -2 65 2 74 7 19
85 21 91 3z m-2680 -503 c146 -55 285 -172 390 -329 73 -111 97 -168 103 -247
4 -60 7 -68 33 -83 24 -14 37 -33 27 -37 -23 -9 -296 -27 -433 -28 -244 -2
-448 29 -553 83 -49 25 -91 120 -112 251 -13 82 -7 131 27 202 44 94 165 172
306 198 106 19 140 18 212 -10z m416 4 c8 -4 30 -45 49 -91 28 -70 34 -98 37
-183 l4 -100 -23 27 c-13 15 -41 81 -62 145 -21 65 -49 137 -62 160 -13 23
-24 46 -24 52 0 11 52 5 81 -10z m183 -54 c-4 -8 -1 -15 5 -15 6 0 11 -6 11
-14 0 -8 6 -16 12 -18 8 -3 6 -8 -7 -15 -18 -9 -23 -5 -41 33 l-21 44 23 0
c17 0 22 -4 18 -15z m1334 -167 c14 -14 16 -28 2 -28 -5 0 -14 9 -20 20 -12
22 -1 27 18 8z m250 -145 c52 -101 65 -189 25 -181 -10 2 -16 19 -18 57 -3 43
-15 72 -64 157 -34 57 -61 107 -61 111 1 18 90 -91 118 -144z m-548 16 c108
-30 179 -71 277 -163 110 -103 243 -280 243 -324 0 -14 -124 -58 -215 -75
-270 -54 -615 -37 -787 37 -67 29 -80 15 -21 -22 96 -61 239 -87 478 -87 258
1 426 26 520 80 24 13 59 23 88 24 65 2 107 21 165 75 55 52 62 54 62 26 0
-47 -53 -155 -94 -194 -200 -186 -757 -217 -1135 -62 -80 32 -105 55 -140 126
-43 86 -54 139 -49 242 4 76 9 103 31 145 15 29 37 59 49 68 162 114 186 122
353 124 74 1 120 -5 175 -20z m-1075 -16 c-7 -30 -13 -39 -19 -32 -8 8 6 59
16 59 6 0 7 -11 3 -27z m2058 -273 c-6 -24 -51 -62 -64 -54 -16 9 -10 25 23
54 34 32 49 31 41 0z m-1878 -90 c-8 -37 -24 -45 -125 -59 -200 -30 -341 -41
-512 -41 -187 0 -218 3 -218 22 0 7 33 9 98 4 121 -8 351 8 502 36 63 11 134
24 157 28 29 4 49 16 64 34 26 34 44 21 34 -24z m1756 -13 c-8 -8 -11 -5 -11
9 0 27 14 41 18 19 2 -9 -1 -22 -7 -28z m-1705 6 c-10 -10 -19 5 -10 18 6 11
8 11 12 0 2 -7 1 -15 -2 -18z"/>
<path d="M6700 10009 c0 -5 5 -7 10 -4 6 3 10 8 10 11 0 2 -4 4 -10 4 -5 0
-10 -5 -10 -11z"/>
<path d="M6855 9910 c3 -5 8 -10 11 -10 2 0 4 5 4 10 0 6 -5 10 -11 10 -5 0
-7 -4 -4 -10z"/>
<path d="M6971 9894 c0 -11 3 -14 6 -6 3 7 2 16 -1 19 -3 4 -6 -2 -5 -13z"/>
<path d="M6798 9848 c-35 -45 -51 -69 -67 -105 -6 -13 -15 -23 -21 -23 -5 0
-10 -4 -10 -9 0 -4 -19 -48 -42 -97 -23 -49 -43 -97 -45 -106 -1 -9 -14 -51
-28 -93 -39 -114 -41 -255 -5 -255 18 0 63 34 55 41 -12 13 41 210 77 284 11
22 26 60 35 85 17 49 95 210 117 242 17 23 10 55 -14 68 -15 8 -25 2 -52 -32z"/>
<path d="M6240 9150 c0 -5 5 -10 11 -10 5 0 7 5 4 10 -3 6 -8 10 -11 10 -2 0
-4 -4 -4 -10z"/>
<path d="M6080 9109 c0 -12 -8 -14 -30 -11 -23 3 -30 0 -30 -12 0 -10 5 -14
10 -11 6 3 10 1 10 -5 0 -6 12 -10 27 -8 30 3 43 32 24 51 -8 8 -11 7 -11 -4z"/>
<path d="M5800 9038 c-177 -17 -267 -50 -282 -103 -6 -23 6 -125 16 -125 0 0
16 4 34 9 24 7 35 6 46 -4 12 -12 15 -12 20 0 3 8 0 15 -7 15 -24 0 30 29 67
36 28 5 37 4 32 -5 -4 -6 -13 -11 -20 -11 -16 0 -47 -43 -61 -85 -7 -21 -18
-31 -35 -33 -34 -5 -47 -17 -54 -53 -8 -42 8 -69 42 -69 l28 0 -4 -68 c-3 -54
-1 -71 12 -81 9 -8 19 -11 22 -8 3 3 10 41 15 84 5 46 14 82 23 88 7 6 34 9
60 7 l46 -4 0 -59 c0 -76 35 -186 67 -206 29 -19 96 -12 131 14 21 16 36 51
69 163 8 28 42 -28 49 -81 5 -38 11 -49 25 -49 32 0 50 29 48 79 -2 62 -19
143 -33 162 -44 58 -164 94 -317 94 -105 0 -106 0 -98 21 4 12 5 25 2 28 -3 3
7 5 23 5 16 0 54 0 84 1 30 0 66 -2 80 -5 14 -3 41 -7 60 -11 19 -3 45 -10 57
-16 12 -6 35 -8 52 -5 27 6 30 4 28 -20 -1 -14 4 -28 12 -31 8 -3 11 0 7 6 -3
6 3 14 15 17 14 5 19 13 16 26 -3 10 -1 22 4 25 5 3 7 10 4 15 -8 12 25 11 64
-2 46 -16 63 1 55 55 -5 37 -23 83 -24 63 0 -5 -20 8 -44 27 -23 20 -49 36
-56 36 -19 0 -115 34 -118 43 -2 4 -32 7 -67 7 -35 0 -74 4 -87 8 -13 4 -61 4
-108 0z m378 -215 c-10 -2 -26 -2 -35 0 -10 3 -2 5 17 5 19 0 27 -2 18 -5z
m-63 -13 c3 -5 1 -10 -4 -10 -6 0 -11 5 -11 10 0 6 2 10 4 10 3 0 8 -4 11 -10z"/>
<path d="M6254 9001 c-5 -3 -10 -16 -12 -28 -3 -25 33 -42 51 -24 8 8 8 11 -2
11 -7 0 -10 4 -6 10 3 5 13 6 22 3 10 -4 14 -2 11 7 -5 16 -51 31 -64 21z"/>
<path d="M4957 8971 c-15 -5 -40 -8 -55 -6 -15 2 -37 -3 -49 -11 -12 -8 -30
-11 -39 -7 -12 4 -15 3 -10 -5 4 -8 0 -12 -12 -12 -29 0 -70 -51 -77 -95 -10
-66 2 -73 82 -47 37 12 74 22 81 22 14 0 16 -16 2 -25 -5 -3 -10 -17 -10 -31
0 -15 -6 -24 -15 -24 -53 0 -42 -183 15 -243 17 -18 18 -18 24 6 3 14 2 45 -3
70 -4 25 -5 51 -1 57 4 6 36 12 70 13 l64 2 -3 -46 c-4 -74 16 -129 62 -171
55 -51 89 -51 166 2 32 21 61 46 65 55 8 21 8 163 0 192 -3 12 -20 27 -37 34
-18 7 -39 18 -47 25 -20 16 -193 38 -242 30 -48 -8 -43 4 14 34 54 28 125 22
201 -17 29 -14 63 -29 77 -33 14 -4 24 -12 23 -19 -2 -6 1 -11 6 -11 15 0 23
37 12 57 -5 10 -13 35 -16 56 -6 39 -61 107 -87 107 -6 0 -31 9 -54 21 -48 23
-163 34 -207 20z"/>
<path d="M5575 8800 c-3 -5 -1 -10 4 -10 6 0 11 5 11 10 0 6 -2 10 -4 10 -3 0
-8 -4 -11 -10z"/>
<path d="M6971 8054 c0 -11 3 -14 6 -6 3 7 2 16 -1 19 -3 4 -6 -2 -5 -13z"/>
<path d="M6274 7409 c-3 -5 0 -9 6 -9 6 0 8 -4 5 -10 -3 -5 -13 -10 -21 -10
-16 0 -52 -30 -37 -30 4 0 1 -5 -7 -10 -13 -8 -13 -10 1 -10 9 0 21 -11 27
-25 7 -15 8 -25 2 -25 -17 0 -11 -26 10 -45 12 -10 20 -31 20 -48 0 -29 0 -30
-20 -12 -11 10 -18 21 -15 24 2 4 0 13 -4 20 -6 9 -10 5 -15 -13 -3 -14 -15
-30 -26 -36 -11 -6 -20 -20 -20 -30 0 -22 -16 -27 -23 -7 -3 9 -7 9 -20 -2
-12 -9 -17 -29 -17 -63 0 -45 1 -48 19 -38 11 5 21 7 24 2 2 -4 2 -1 0 6 -7
27 8 30 34 6 14 -13 34 -24 44 -24 10 0 27 -13 39 -30 12 -16 17 -30 11 -30
-16 0 -13 -36 3 -49 8 -7 41 -11 77 -10 35 2 74 -3 86 -9 30 -17 32 -16 48 21
8 17 14 26 15 20 0 -15 30 -18 30 -4 0 5 -7 17 -16 25 -13 14 -13 16 0 16 8 0
22 7 31 16 8 9 22 13 30 10 9 -3 15 0 15 8 0 7 7 19 15 26 8 7 15 21 15 31 0
9 7 25 16 33 16 17 13 28 -20 64 -18 21 -21 35 -19 110 1 48 -3 93 -9 100 -12
14 -48 16 -48 2 0 -15 -32 -12 -54 5 -10 8 -23 12 -27 9 -15 -9 -78 8 -76 20
2 13 -120 18 -129 5z m326 -59 c0 -5 -4 -10 -10 -10 -5 0 -10 5 -10 10 0 6 5
10 10 10 6 0 10 -4 10 -10z m-377 -210 c3 -11 4 -20 2 -20 -2 0 -10 -3 -18 -6
-11 -4 -13 1 -10 20 6 31 19 34 26 6z"/>
<path d="M6500 7410 c0 -5 5 -10 11 -10 5 0 7 5 4 10 -3 6 -8 10 -11 10 -2 0
-4 -4 -4 -10z"/>
<path d="M6620 7412 c0 -5 7 -13 16 -16 10 -4 14 -1 12 6 -5 15 -28 23 -28 10z"/>
<path d="M5944 6943 c-5 -26 -2 -45 9 -64 19 -35 23 -32 -133 -107 -174 -83
-210 -98 -248 -107 -18 -3 -45 -13 -60 -20 -15 -8 -49 -19 -77 -26 -27 -6 -59
-15 -70 -20 -11 -4 -40 -11 -65 -14 -25 -4 -70 -13 -100 -20 -30 -8 -77 -17
-104 -20 -27 -3 -55 -10 -63 -16 -28 -24 -9 -114 23 -108 5 1 24 1 42 0 30 -1
33 -3 26 -23 -9 -29 -22 -38 -59 -38 -23 0 -27 -3 -15 -10 8 -5 31 -10 51 -10
19 0 39 -4 45 -10 5 -5 26 -13 47 -17 21 -4 37 -12 36 -18 0 -5 -4 -9 -9 -8
-4 1 -18 -9 -31 -23 -22 -23 -22 -27 -9 -51 26 -44 98 -65 230 -66 121 -1 189
10 280 45 68 26 63 22 67 65 3 42 11 53 24 33 7 -12 10 -13 18 -1 6 10 13 10
29 2 29 -16 48 9 31 41 -11 21 -13 21 -19 3 -4 -10 -9 -14 -13 -9 -10 16 4 54
19 54 8 0 14 5 14 10 0 6 -7 10 -17 10 -14 0 -14 2 2 20 10 11 25 18 34 16 66
-21 121 -16 121 10 0 8 6 14 13 14 8 0 7 4 -3 11 -13 9 -13 10 2 5 11 -3 32
10 62 40 25 24 55 44 66 44 12 0 19 4 16 9 -3 4 6 19 19 31 14 13 25 32 25 43
0 15 5 18 21 14 16 -4 20 -1 17 16 -1 12 1 28 6 35 5 8 3 11 -5 10 -7 -2 -15
5 -17 15 -2 10 2 17 11 17 23 0 30 46 11 75 -15 23 -166 105 -193 105 -6 0
-18 11 -27 25 -11 17 -25 25 -45 25 -25 0 -29 -5 -35 -37z m166 -184 c0 -5 -7
-9 -15 -9 -15 0 -20 12 -9 23 8 8 24 -1 24 -14z m-190 -309 c0 -5 -9 -10 -20
-10 -11 0 -20 5 -20 10 0 6 9 10 20 10 11 0 20 -4 20 -10z m-240 -107 c0 -7
-13 -14 -112 -57 -39 -17 -123 -22 -113 -6 3 5 12 7 20 3 9 -3 22 0 30 7 9 7
34 14 57 16 22 2 48 10 57 18 25 21 61 32 61 19z m-400 -68 c0 -8 -7 -15 -15
-15 -9 0 -12 6 -9 15 4 8 10 15 15 15 5 0 9 -7 9 -15z m145 -14 c-6 -6 -25 -6
-45 -1 l-35 8 45 1 c27 1 40 -3 35 -8z"/>
<path d="M6975 6970 c-3 -5 -1 -10 4 -10 6 0 11 5 11 10 0 6 -2 10 -4 10 -3 0
-8 -4 -11 -10z"/>
<path d="M6392 6850 c0 -14 2 -19 5 -12 2 6 2 18 0 25 -3 6 -5 1 -5 -13z"/>
<path d="M5050 6390 c-11 -8 -7 -10 17 -8 17 1 29 6 27 10 -7 11 -26 10 -44
-2z"/>
<path d="M5912 6375 c6 -14 13 -24 14 -22 6 6 -9 47 -17 47 -5 0 -3 -11 3 -25z"/>
<path d="M5150 6290 c0 -5 12 -10 26 -10 14 0 23 4 19 10 -3 6 -15 10 -26 10
-10 0 -19 -4 -19 -10z"/>
<path d="M5825 6260 c-3 -5 -1 -10 4 -10 6 0 11 5 11 10 0 6 -2 10 -4 10 -3 0
-8 -4 -11 -10z"/>
<path d="M5791 6224 c0 -11 3 -14 6 -6 3 7 2 16 -1 19 -3 4 -6 -2 -5 -13z"/>
<path d="M6413 6128 c-6 -7 -13 -23 -16 -36 -4 -19 -3 -21 9 -11 8 6 12 14 10
17 -3 2 -1 13 5 23 11 22 6 25 -8 7z"/>
<path d="M6358 6053 c7 -3 16 -2 19 1 4 3 -2 6 -13 5 -11 0 -14 -3 -6 -6z"/>
<path d="M7210 4960 c-14 -4 -65 -20 -113 -36 l-88 -27 3 -36 c3 -36 3 -36 47
-34 80 4 219 90 205 127 -7 18 -16 19 -54 6z"/>
<path d="M7027 4773 c-4 -3 -7 -26 -7 -50 0 -37 4 -45 26 -53 64 -25 123 0
103 43 -19 41 -101 82 -122 60z"/>
<path d="M4786 3021 c-13 -20 17 -64 91 -135 131 -124 195 -168 215 -148 18
18 -2 49 -60 95 -31 25 -91 75 -132 112 -85 75 -106 89 -114 76z"/>
<path d="M4940 2977 c0 -13 10 -33 23 -44 59 -54 196 -117 239 -111 l23 3 -25
23 c-14 13 -56 39 -95 59 -38 19 -88 48 -109 64 -48 35 -56 36 -56 6z"/>
<path d="M6810 3726 c0 -13 112 -58 177 -71 52 -10 46 11 -10 33 -153 59 -167
62 -167 38z"/>
<path d="M6616 3692 c-21 -35 316 -214 346 -184 13 13 -19 34 -172 114 -137
72 -166 83 -174 70z"/>
<path d="M6158 2883 c49 -69 280 -268 318 -275 30 -5 32 47 2 63 -13 7 -68 49
-123 94 -101 82 -191 145 -207 145 -5 0 -1 -12 10 -27z"/>
<path d="M6107 2833 c-10 -16 45 -94 124 -177 73 -77 99 -92 99 -56 0 25 -214
248 -223 233z"/>
<path d="M4572 1350 c0 -14 2 -19 5 -12 2 6 2 18 0 25 -3 6 -5 1 -5 -13z"/>
<path d="M6370 1136 c0 -8 5 -18 10 -21 6 -3 10 1 10 9 0 8 -4 18 -10 21 -5 3
-10 -1 -10 -9z"/>
<path d="M6200 1078 c0 -32 9 -58 21 -58 14 0 10 44 -6 66 -14 18 -14 18 -15
-8z"/>
</g>
</svg>
